<?xml version="1.0" standalone="no"?>
<!DOCTYPE svg PUBLIC "-//W3C//DTD SVG 20010904//EN"
 "http://www.w3.org/TR/2001/REC-SVG-20010904/DTD/svg10.dtd">
<svg version="1.0" xmlns="http://www.w3.org/2000/svg"
 width="263.000000pt" height="326.000000pt" viewBox="0 0 263.000000 326.000000"
 preserveAspectRatio="xMidYMid meet">
<metadata>
Created by potrace 1.10, written by Peter Selinger 2001-2011
</metadata>
<g transform="translate(0.000000,326.000000) scale(0.100000,-0.100000)"
fill="#000000" stroke="none">
<path d="M1576 2957 c6 -39 3 -46 -24 -69 -16 -13 -90 -46 -163 -72 -147 -53
-200 -80 -241 -123 -41 -43 -48 -74 -48 -216 l-1 -132 -108 -63 c-171 -100
-250 -182 -251 -261 -1 -88 115 -205 320 -326 8 -5 -6 15 -32 43 -73 82 -93
131 -93 232 0 77 3 91 34 150 33 64 109 169 124 170 4 0 7 -142 7 -315 l0
-315 -73 0 c-49 0 -80 -5 -93 -15 -17 -13 -10 -14 75 -15 l94 0 -5 -164 c-4
-152 -6 -167 -31 -219 -26 -52 -29 -55 -74 -62 -94 -14 -177 -82 -201 -164
-13 -43 -14 -123 -2 -161 7 -23 8 -22 9 10 1 48 31 100 72 129 31 21 41 23
122 17 49 -3 93 -9 98 -12 12 -7 10 -288 -3 -369 -4 -31 -15 -75 -23 -98 -9
-23 -17 -46 -18 -52 -4 -19 38 -4 62 23 23 25 23 29 17 152 -3 69 -6 172 -7
230 -2 125 -19 119 174 53 174 -59 164 -58 230 -33 230 86 430 367 492 692 25
132 30 290 11 378 -47 220 -208 400 -381 425 -38 6 -44 2 -112 -53 l-72 -60
46 -11 c143 -36 260 -128 313 -244 57 -126 65 -173 64 -397 0 -178 -3 -215
-21 -282 -29 -104 -65 -176 -115 -233 -48 -54 -89 -75 -150 -75 -46 0 -165 31
-235 61 -45 19 -172 57 -225 66 -24 5 -27 9 -22 32 9 36 30 75 49 91 14 12 13
16 -8 39 -34 36 -38 53 -39 177 l0 109 67 3 68 3 -6 -143 c-5 -157 -21 -227
-62 -270 -14 -15 -25 -29 -25 -32 0 -10 76 7 112 25 89 45 137 149 145 312 l6
107 71 0 c47 1 78 6 90 15 18 14 11 15 -72 15 l-92 0 0 368 c0 387 4 423 49
515 25 50 20 59 -13 24 -29 -31 -159 -117 -266 -174 l-76 -41 3 91 c3 90 3 93
34 119 18 15 66 39 108 54 246 88 297 116 335 188 24 48 25 119 2 164 -22 43
-27 40 -20 -11z m0 -120 c-16 -64 -76 -103 -249 -164 -56 -19 -123 -46 -149
-59 -46 -23 -48 -23 -48 -5 0 27 44 77 94 105 22 14 86 40 141 59 126 44 191
72 200 87 11 18 18 4 11 -23z m-167 -374 c-28 -73 -34 -776 -7 -810 6 -7 5
-14 -2 -18 -6 -3 -10 -44 -10 -95 0 -123 -27 -208 -85 -266 -64 -64 -78 -59
-54 16 21 67 27 300 21 847 -2 251 -1 272 15 277 10 3 41 21 68 40 61 43 67
44 54 9z m-159 -433 l0 -370 -67 0 -68 0 2 328 1 327 54 42 c29 24 59 43 66
43 9 0 12 -81 12 -370z m503 304 c108 -55 213 -202 242 -341 30 -142 12 -349
-45 -526 -31 -93 -59 -154 -60 -128 0 8 7 53 16 100 23 120 15 364 -14 474
-48 178 -130 288 -263 352 -41 19 -80 35 -88 35 -18 0 12 36 52 60 34 21 81
13 160 -26z m-737 -86 c-77 -107 -116 -200 -116 -279 0 -27 9 -74 19 -104 11
-30 18 -55 16 -55 -2 0 -30 22 -62 48 -61 51 -103 119 -103 166 0 60 49 114
180 198 41 26 77 48 79 48 2 0 -4 -10 -13 -22z m111 -940 c-3 -8 -6 -5 -6 6
-1 11 2 17 5 13 3 -3 4 -12 1 -19z m-7 -154 c14 -7 66 -24 115 -37 50 -14 137
-42 195 -62 66 -23 126 -37 162 -38 32 -1 58 -3 58 -4 0 -6 -97 -58 -140 -74
l-50 -19 -148 50 c-81 27 -161 50 -177 50 -17 0 -36 5 -43 12 -7 7 -48 12
-109 12 -87 1 -102 -2 -130 -22 -30 -21 -33 -22 -33 -5 0 50 107 132 173 133
19 0 40 11 60 33 l32 32 5 -25 c3 -13 16 -30 30 -36z"/>
</g>
<style>
        path { fill: #000; }
        @media (prefers-color-scheme: dark) {
            path { fill: #FFF; }
        }
    </style>
</svg>
